<svg xmlns:dc="http://purl.org/dc/elements/1.1/" xmlns:cc="http://creativecommons.org/ns#" xmlns:rdf="http://www.w3.org/1999/02/22-rdf-syntax-ns#" xmlns:svg="http://www.w3.org/2000/svg" xmlns="http://www.w3.org/2000/svg" xmlns:sodipodi="http://sodipodi.sourceforge.net/DTD/sodipodi-0.dtd" xmlns:inkscape="http://www.inkscape.org/namespaces/inkscape" viewBox="0 0 210 297" version="1.1" id="svg8" sodipodi:docname="hashtag.svg" inkscape:version="0.92.5 (2060ec1f9f, 2020-04-08)" viewport="0 0 282px 400px">
  <defs id="defs2"/>
  <sodipodi:namedview id="base" pagecolor="#ffffff" bordercolor="#666666" borderopacity="1.0" inkscape:pageopacity="0.0" inkscape:pageshadow="2" inkscape:zoom="0.5" inkscape:cx="268.74544" inkscape:cy="691.37393" inkscape:document-units="mm" inkscape:current-layer="layer1" showgrid="false" inkscape:window-width="1366" inkscape:window-height="704" inkscape:window-x="0" inkscape:window-y="27" inkscape:window-maximized="1"/>
  <metadata id="metadata5">
    <rdf:RDF>
      <cc:Work rdf:about="">
        <dc:format>image/svg+xml</dc:format>
        <dc:type rdf:resource="http://purl.org/dc/dcmitype/StillImage"/>
      </cc:Work>
    </rdf:RDF>
  </metadata>
  <g inkscape:label="Layer 1" inkscape:groupmode="layer" id="layer1">
    <text xml:space="preserve" style="font-style:normal;font-weight:normal;font-size:4.23333311px;line-height:1.25;font-family:sans-serif;letter-spacing:0px;word-spacing:0px;fill:#000000;fill-opacity:1;stroke:none;stroke-width:0.26458332;opacity:0.99;" x="51.850288" y="117.92941" id="text817"><tspan sodipodi:role="line" id="tspan815" x="51.850288" y="117.92941" style="stroke-width:0.26458332;">#petpeeve</tspan></text>
    <g aria-label="{" style="font-style:normal;font-weight:normal;font-size:4.23333311px;line-height:1.25;font-family:sans-serif;letter-spacing:0px;word-spacing:0px;fill:#000000;fill-opacity:1;stroke:none;stroke-width:0.26458332;opacity:0.99" id="text821" transform="rotate(90,53.332281,125.74988)">
      <path d="m 41.485234,126.87408 v 0.29766 h -0.128158 c -0.343131,0 -0.573264,-0.051 -0.690397,-0.15296 -0.115755,-0.10198 -0.173633,-0.30524 -0.173633,-0.60978 v -0.49403 c 0,-0.20809 -0.03721,-0.35209 -0.111621,-0.43202 -0.07441,-0.0799 -0.209462,-0.11989 -0.405143,-0.11989 h -0.126091 v -0.29558 h 0.126091 c 0.197059,0 0.332107,-0.0393 0.405143,-0.11783 0.07441,-0.0799 0.111621,-0.22255 0.111621,-0.42788 v -0.49609 c 0,-0.30455 0.05788,-0.50712 0.173633,-0.60772 0.117133,-0.10197 0.347266,-0.15296 0.690397,-0.15296 h 0.128158 v 0.29559 h -0.14056 c -0.194303,0 -0.321083,0.0303 -0.380339,0.0909 -0.05925,0.0607 -0.08888,0.18814 -0.08888,0.38241 v 0.51263 c 0,0.21635 -0.03169,0.37344 -0.09508,0.47129 -0.06201,0.0978 -0.168811,0.16398 -0.320394,0.19843 0.152963,0.0372 0.26045,0.10472 0.322461,0.20257 0.06201,0.0979 0.09302,0.25426 0.09302,0.46923 v 0.51263 c 0,0.1943 0.02963,0.32177 0.08888,0.3824 0.05925,0.0606 0.186033,0.0909 0.380339,0.0909 z" style="stroke-width:0.26458332" id="path823" inkscape:connector-curvature="0" sodipodi:nodetypes="ccscssssccscsscsccscsscccssccc"/>
    </g>
    <g aria-label="{" style="font-style:normal;font-weight:normal;font-size:4.23333311px;line-height:1.25;font-family:sans-serif;letter-spacing:0px;word-spacing:0px;fill:#000000;fill-opacity:1;stroke:none;stroke-width:0.26458332;opacity:0.99" id="text821-3" transform="rotate(90,62.066588,121.44828)" inkscape:transform-center-x="7.349912" inkscape:transform-center-y="12.695303">
      <path d="m 54.549036,127.27568 v 0.29766 h -0.128158 c -0.343131,0 -0.573264,-0.051 -0.690397,-0.15296 -0.115755,-0.10198 -0.173633,-0.30524 -0.173633,-0.60978 v -0.49403 c 0,-0.20809 -0.03721,-8.43133 -0.111621,-8.51126 -0.07441,-0.0799 -0.209462,-0.11989 -0.405143,-0.11989 h -0.126091 v -0.29558 h 0.126091 c 0.197059,0 0.332107,-0.0393 0.405143,-0.11783 0.07441,-0.0799 0.111621,-8.27817 0.111621,-8.48349 v -0.49609 c 0,-0.30455 0.05788,-0.50712 0.173633,-0.60772 0.117133,-0.10198 0.347266,-0.15296 0.690397,-0.15296 h 0.128158 v 0.29559 h -0.14056 c -0.194303,0 -0.321083,0.0303 -0.380339,0.0909 -0.05925,0.0607 -0.08888,0.18813 -0.08888,0.38241 v 0.51263 c 0,0.21634 -0.03169,8.42906 -0.09508,8.5269 -0.06201,0.0978 -0.168811,0.16399 -0.320394,0.19843 0.152963,0.0372 0.26045,0.10473 0.322461,0.20257 0.06201,0.0979 0.09302,8.3335 0.09302,8.54847 v 0.51263 c 0,0.1943 0.02963,0.32177 0.08888,0.3824 0.05925,0.0606 0.186033,0.0909 0.380339,0.0909 z" style="stroke-width:0.26458332" id="path823-6" inkscape:connector-curvature="0" sodipodi:nodetypes="ccscssssccscsscsccscsscccssccc"/>
    </g>
    <g aria-label="{" style="font-style:normal;font-weight:normal;font-size:4.23333311px;line-height:1.25;font-family:sans-serif;letter-spacing:0px;word-spacing:0px;fill:#000000;fill-opacity:1;stroke:none;stroke-width:0.26458332;opacity:0.99" id="text821-3-7" transform="matrix(0,-1,-1,0,179.75325,173.9804)" inkscape:transform-center-x="7.349912" inkscape:transform-center-y="-12.695302">
      <path d="m 54.549036,127.60641 v 0.29766 h -0.128158 c -0.343131,0 -0.573264,-0.051 -0.690397,-0.15296 -0.115755,-0.10198 -0.173633,-0.30524 -0.173633,-0.60978 v -0.49403 c 0,-0.20809 -0.03721,-10.49839 -0.111621,-10.57832 -0.07441,-0.0799 -0.209462,-0.11989 -0.405143,-0.11989 h -0.126091 v -0.29558 h 0.126091 c 0.197059,0 0.332107,-0.0393 0.405143,-0.11783 0.07441,-0.0799 0.111621,-10.32161 0.111621,-10.52693 v -0.49609 c 0,-0.30455 0.05788,-0.50712 0.173633,-0.60772 0.117133,-0.10198 0.347266,-0.15296 0.690397,-0.15296 h 0.128158 v 0.29559 h -0.14056 c -0.194303,0 -0.321083,0.0303 -0.380339,0.0909 -0.05925,0.0607 -0.08888,0.18813 -0.08888,0.38241 v 0.51263 c 0,0.21634 -0.03169,10.4725 -0.09508,10.57034 -0.06201,0.0978 -0.168811,0.16399 -0.320394,0.19843 0.152963,0.0372 0.26045,0.10473 0.322461,0.20257 0.06201,0.0979 0.09302,10.40056 0.09302,10.61553 v 0.51263 c 0,0.1943 0.02963,0.32177 0.08888,0.3824 0.05925,0.0606 0.186033,0.0909 0.380339,0.0909 z" style="stroke-width:0.26458332" id="path823-6-5" inkscape:connector-curvature="0" sodipodi:nodetypes="ccscssssccscsscsccscsscccssccc"/>
    </g>
    <text xml:space="preserve" style="font-style:normal;font-weight:normal;font-size:4.23333311px;line-height:1.25;font-family:sans-serif;letter-spacing:0px;word-spacing:0px;opacity:0.95000001;fill:#05d405;fill-opacity:1;stroke:#05d405;stroke-width:0.1;stroke-miterlimit:4;stroke-dasharray:none;stroke-opacity:1;" x="51.182114" y="111.65956" id="text900"><tspan sodipodi:role="line" id="tspan898" x="51.182114" y="111.65956" style="font-style:normal;font-variant:normal;font-weight:normal;font-stretch:normal;font-size:4.23333311px;font-family:'Learning Curve';-inkscape-font-specification:'Learning Curve, Normal';font-variant-ligatures:normal;font-variant-caps:normal;font-variant-numeric:normal;font-feature-settings:normal;text-align:start;writing-mode:lr-tb;text-anchor:start;stroke:#05d405;stroke-width:0.1;stroke-miterlimit:4;stroke-dasharray:none;stroke-opacity:1;fill:#05d405;fill-opacity:1;">hash</tspan></text>
    <text xml:space="preserve" style="font-style:normal;font-variant:normal;font-weight:normal;font-stretch:normal;font-size:4.23333311px;line-height:1.25;font-family:'Learning Curve';-inkscape-font-specification:'Learning Curve, Normal';font-variant-ligatures:normal;font-variant-caps:normal;font-variant-numeric:normal;font-feature-settings:normal;text-align:start;letter-spacing:0px;word-spacing:0px;writing-mode:lr-tb;text-anchor:start;fill:#05d405;fill-opacity:1;stroke:#05d405;stroke-width:0.1;stroke-miterlimit:4;stroke-dasharray:none;stroke-opacity:1;opacity:0.95000001;" x="64.411949" y="111.0472" id="text904"><tspan sodipodi:role="line" id="tspan902" x="64.411949" y="111.0472" style="font-style:normal;font-variant:normal;font-weight:normal;font-stretch:normal;font-size:4.23333311px;font-family:'Learning Curve';-inkscape-font-specification:'Learning Curve, Normal';font-variant-ligatures:normal;font-variant-caps:normal;font-variant-numeric:normal;font-feature-settings:normal;text-align:start;writing-mode:lr-tb;text-anchor:start;stroke-width:0.1;stroke-miterlimit:4;stroke-dasharray:none;stroke:#05d405;stroke-opacity:1;fill:#05d405;fill-opacity:1;">tag</tspan></text>
    <text xml:space="preserve" style="font-style:normal;font-weight:normal;font-size:4.23333311px;line-height:1.25;font-family:sans-serif;letter-spacing:0px;word-spacing:0px;opacity:0.98999999;fill:#d40505;fill-opacity:1;stroke:#d40505;stroke-width:0.1;stroke-miterlimit:4;stroke-dasharray:none;stroke-opacity:1;" x="59.462097" y="123.8869" id="text908"><tspan sodipodi:role="line" id="tspan906" x="59.462097" y="123.8869" style="font-style:normal;font-variant:normal;font-weight:normal;font-stretch:normal;font-size:4.23333311px;font-family:'Learning Curve';-inkscape-font-specification:'Learning Curve, Normal';font-variant-ligatures:normal;font-variant-caps:normal;font-variant-numeric:normal;font-feature-settings:normal;text-align:start;writing-mode:lr-tb;text-anchor:start;stroke:#d40505;stroke-width:0.1;stroke-miterlimit:4;stroke-dasharray:none;stroke-opacity:1;fill:#d40505;fill-opacity:1;">hashtag</tspan></text>
  </g>
</svg>